# File created by Blade
# Date/Time:  Wed Jan 21 18:02:19 2015
# Frame Rate: 120.000 fps
#------------------------------------------------------
:FULLY-SPECIFIED
:DEGREES
685
root 21.070455 35.837997 -19.876591 -157.769706 13.005273 -171.955639
Spine -8.997103 3.366582 -2.863374
Head -14.149897 3.978638 9.954334
LeftShoulder 1.020817 -26.156525 -0.815397
LeftArm -6.374246 27.240933 -77.856721
LeftForeArm -3.276420 -0.000000 3.649884
LeftHand -0.062917 -0.000000 -0.688336
LeftHandThumb1 -26.253704 0.000000 33.147579
RightShoulder -5.429692 -11.808533 12.147088
RightArm 26.074380 -29.198492 57.769750
RightForeArm -24.432273 -0.000000 32.960338
RightHand 1.563964 -0.000000 8.480655
RightHandThumb1 -24.326973 -0.000000 -32.862282
LeftUpLeg -29.612071 11.754349 -2.863464
LeftLeg 16.995237 -0.000000 -0.000000
LeftFoot -25.986841 25.907981 -11.582394
LeftToeBase 22.779972 -0.000000 -0.000000
RightUpLeg -16.324069 -2.836378 13.715304
RightLeg -2.581485 -0.000000 0.000000
RightFoot -24.430840 -24.430313 21.157266
RightToeBase 14.365498 -0.000000 -0.000000
686
root 21.031287 35.881629 -19.818870 -156.602094 12.957311 -171.681271
Spine -9.437553 2.865659 -2.748878
Head -15.044453 4.508678 10.072168
LeftShoulder 1.031681 -26.104040 -0.780623
LeftArm -6.226047 27.251914 -77.475917
LeftForeArm -3.472246 0.000000 3.598379
LeftHand 0.106263 -0.000000 -0.703894
LeftHandThumb1 -26.253704 0.000000 33.147579
RightShoulder -5.291112 -11.825323 12.175831
RightArm 26.387757 -29.398436 57.509552
RightForeArm -24.349819 0.000000 33.355652
RightHand 1.723738 -0.000000 8.473206
RightHandThumb1 -24.326973 -0.000000 -32.862282
LeftUpLeg -30.705133 11.949600 -2.959098
LeftLeg 16.648636 -0.000000 -0.000000
LeftFoot -25.602354 25.698348 -11.513062
LeftToeBase 22.758029 -0.000000 -0.000000
RightUpLeg -16.665743 -3.557112 14.283911
RightLeg -3.062478 -0.000000 0.000000
RightFoot -24.524364 -24.848978 21.349166
RightToeBase 14.358239 -0.000000 -0.000000
687
root 20.993342 35.920885 -19.781991 -155.681739 12.790292 -171.435498
Spine -9.594514 2.298580 -2.562877
Head -15.957091 4.992507 10.115847
LeftShoulder 1.081732 -26.181541 -0.820913
LeftArm -6.228584 27.073789 -77.100438
LeftForeArm -3.631537 0.000000 3.596023
LeftHand 0.274501 0.000000 -0.586820
LeftHandThumb1 -26.253704 0.000000 33.147579
RightShoulder -5.124136 -11.761343 12.202196
RightArm 26.656210 -29.606630 57.221742
RightForeArm -24.339775 -0.000000 33.765674
RightHand 1.701187 -0.000000 8.504320
RightHandThumb1 -24.326973 -0.000000 -32.862282
LeftUpLeg -31.514726 12.007607 -2.998165
LeftLeg 16.247018 -0.000000 -0.000000
LeftFoot -25.176939 25.654854 -11.329395
LeftToeBase 22.534547 -0.000000 -0.000000
RightUpLeg -16.689619 -4.485617 14.841449
RightLeg -3.365356 -0.000000 0.000000
RightFoot -24.408493 -25.249613 21.253132
RightToeBase 14.156767 -0.000000 -0.000000
688
root 20.941325 35.966375 -19.722086 -154.267495 12.919375 -171.261317
Spine -10.431475 1.992715 -2.670174
Head -16.650257 5.430464 10.297428
LeftShoulder 1.080991 -26.207097 -0.660320
LeftArm -6.357978 26.869257 -76.899413
LeftForeArm -3.856610 -0.000000 3.613045
LeftHand 0.418418 -0.000000 -0.202565
LeftHandThumb1 -26.253704 0.000000 33.147579
RightShoulder -5.039434 -11.718405 12.222986
RightArm 26.870506 -29.959117 57.051231
RightForeArm -24.251067 -0.000000 34.101966
RightHand 1.804854 -0.000000 8.438446
RightHandThumb1 -24.326973 -0.000000 -32.862282
LeftUpLeg -32.805718 12.078067 -3.249635
LeftLeg 15.785922 -0.000000 -0.000000
LeftFoot -24.781043 25.662687 -11.446177
LeftToeBase 22.367527 -0.000000 -0.000000
RightUpLeg -17.297664 -4.783501 15.131024
RightLeg -3.187003 -0.000000 0.000000
RightFoot -24.357600 -25.796367 21.198668
RightToeBase 13.666207 -0.000000 -0.000000
